<?xml version="1.0" standalone="no"?>
<!DOCTYPE svg PUBLIC "-//W3C//DTD SVG 20010904//EN"
 "http://www.w3.org/TR/2001/REC-SVG-20010904/DTD/svg10.dtd">
<svg version="1.0" xmlns="http://www.w3.org/2000/svg"
 width="1080.000000pt" height="1080.000000pt" viewBox="0 0 1080.000000 1080.000000"
 preserveAspectRatio="xMidYMid meet">
<g transform="translate(0.000000,1080.000000) scale(0.100000,-0.100000)"
fill="#000000" stroke="none">
<path d="M6330 8023 c-78 -82 -169 -158 -280 -233 -71 -48 -198 -120 -211 -120 -5 0 -46 24 -92 53 -143 93 -327 182 -327 158 0 -20 -188 -198 -231 -219 -68 -33 -86 -30 -100 18 -7 22 -14 40 -17 40 -7 0 -182 -120 -232 -159 -25 -19 -50 -39 -56 -43 -6 -5 -28 5 -53 22 -86 62 -359 170 -431 170 -45 0 -140 -39 -191 -79 -88 -68 -123 -145 -168 -368 -26 -127 -26 -147 3 -263 l23 -95 -53 -110 c-122 -250 -234 -584 -309 -920 -45 -199 -87 -597 -83 -770 l3 -120 33 99 c35 103 84 210 102 221 12 8 13 16 -6 -85 -22 -118 -30 -440 -14 -582 18 -165 77 -439 117 -545 20 -51 39 -93 43 -93 4 0 10 37 14 83 3 45 12 107 20 137 12 52 13 54 20 25 25 -103 125 -336 145 -335 3 0 21 23 39 50 52 76 146 174 202 210 l50 32 93 -84 c229 -208 444 -365 722 -530 180 -107 431 -231 465 -231 40 0 451 212 570 294 14 9 68 45 120 79 179 118 331 237 502 393 l88 79 50 -32 c56 -36 150 -134 202 -210 18 -27 36 -50 40 -50 24 -1 138 277 138 336 0 13 4 24 9 24 11 0 41 -160 41 -222 0 -27 4 -48 9 -48 26 0 113 307 148 520 24 149 29 470 9 620 -9 69 -19 136 -23 149 -4 17 -3 22 6 17 19 -12 65 -113 102 -221 l34 -100 3 105 c7 238 -52 697 -124 960 -86 314 -150 494 -261 731 l-45 95 16 55 c9 30 22 87 30 127 13 67 12 81 -9 195 -49 259 -103 354 -241 421 -89 44 -132 44 -259 2 -60 -21 -140 -52 -177 -71 -37 -19 -69 -31 -72 -27 -14 22 -55 329 -57 422 -2 112 -5 113 -89 23z m-1090 -1629 c283 -51 372 -51 665 1 209 38 230 40 425 39 210 0 370 -17 582 -63 l83 -18 0 -91 c0 -86 -1 -92 -28 -120 -22 -23 -34 -53 -52 -133 -56 -240 -94 -329 -176 -410 -93 -92 -196 -120 -433 -120 -198 0 -285 22 -401 101 -67 46 -161 206 -201 341 -18 59 -57 107 -102 126 -30 12 -37 12 -70 -4 -44 -22 -85 -79 -108 -153 -27 -87 -100 -223 -149 -273 -92 -97 -225 -138 -440 -138 -236 0 -346 30 -436 120 -74 74 -108 150 -158 350 -35 141 -45 170 -71 196 -30 31 -31 34 -28 120 l3 88 85 19 c84 18 322 54 410 62 25 2 124 2 220 1 148 -3 206 -9 380 -41z m481 -829 c57 -20 77 -40 124 -130 21 -38 54 -99 75 -135 64 -112 166 -313 187 -370 28 -75 47 -224 40 -318 -6 -94 -34 -175 -87 -257 -59 -91 -100 -129 -182 -169 -78 -38 -230 -81 -254 -72 -9 4 -14 21 -14 54 0 46 2 49 43 72 112 63 171 135 216 266 44 128 42 157 -12 209 -47 44 -144 89 -230 106 -105 19 -289 -40 -356 -116 -40 -46 -40 -77 -1 -196 40 -124 115 -216 218 -268 l43 -22 -3 -52 -3 -52 -43 3 c-65 4 -190 47 -262 90 -53 32 -75 54 -120 120 -84 123 -103 177 -108 305 -4 109 6 190 35 277 18 52 126 273 182 369 21 36 57 102 80 146 24 44 52 90 63 102 19 21 79 45 138 57 45 9 184 -3 231 -19z"/>
<path d="M4550 6359 c-72 -11 -153 -45 -188 -78 -65 -63 -76 -124 -52 -277 24 -150 42 -207 87 -282 68 -113 162 -157 369 -174 149 -12 255 -2 329 31 70 31 157 125 199 215 65 142 91 232 91 322 0 73 -3 84 -28 117 -38 50 -97 82 -197 108 -72 18 -121 21 -315 24 -126 2 -259 -1 -295 -6z"/>
<path d="M6105 6363 c-159 -19 -279 -69 -327 -136 -71 -100 26 -434 165 -571 70 -68 116 -91 217 -107 78 -12 247 -6 335 13 65 13 165 61 198 94 46 46 85 117 106 194 31 113 51 268 42 317 -19 100 -100 164 -239 189 -71 12 -413 18 -497 7z"/>
<path d="M4227 3991 c-65 -46 -167 -153 -167 -176 0 -20 88 -127 192 -232 97 -99 129 -123 113 -85 -39 93 -75 223 -75 273 0 21 19 5 70 -63 30 -40 93 -115 139 -168 111 -127 429 -450 443 -450 7 0 9 28 6 85 -2 47 -3 85 -1 85 2 0 31 -19 65 -41 89 -61 212 -174 305 -280 82 -95 93 -108 192 -255 30 -43 56 -81 58 -84 2 -2 8 2 13 10 137 224 359 473 527 593 44 31 83 57 86 57 2 0 2 -38 -1 -85 -3 -55 -1 -85 5 -85 28 0 417 410 558 588 44 56 84 101 88 101 19 2 -26 -198 -60 -262 -8 -16 -12 -32 -8 -35 12 -12 219 206 307 324 17 24 -193 224 -235 224 -5 0 -37 -30 -71 -67 -203 -224 -377 -397 -443 -440 -20 -13 -25 -12 -51 7 -35 26 -30 28 -173 -65 -160 -104 -267 -192 -411 -337 -76 -76 -138 -134 -138 -129 0 29 -270 285 -390 369 -102 73 -221 152 -249 167 -32 16 -75 8 -83 -17 -6 -18 -33 1 -140 98 -79 72 -180 176 -343 356 l-60 66 -68 -47z"/>
</g>
</svg>